{"title":"The Girl He Met Online 2014 HDRip XviD-LIFETIME","uid":10010737,"size":732610656,"categoryP":"video","categoryS":"movies","magnet":"?xt=urn:btih:acb3913cb720a2c307ca2ceea7c38717804e46bb&amp;dn=The+Girl+He+Met+Online+2014+HDRip+XviD-LIFETIME&amp;tr=udp%3A%2F%2Ftracker.openbittorrent.com%3A80&amp;tr=udp%3A%2F%2Fopen.demonii.com%3A1337&amp;tr=udp%3A%2F%2Ftracker.coppersurfer.tk%3A6969&amp;tr=udp%3A%2F%2Fexodus.desync.com%3A6969","seeders":3,"leechers":7,"uploader":"TeXTX","files":4,"time":1398096793,"description":"[center][img]http://s8.postimg.org/41vnxfixh/MV5_BMj_Iy_MTYx_MTc0_MV5_BMl5_Ban_Bn_Xk_Ft_ZTgw_MDUy_Mjkw_MTE.jpg[/img]\n &lt;a href=&quot;\nhttp://www.imdb.com/title/tt3107328/&quot; rel=&quot;nofollow&quot; target=&quot;_NEW&quot;&gt;\nhttp://www.imdb.com/title/tt3107328/&lt;/a&gt;\n\nA man's relationship with a bipolar woman becomes dangerous.\n\nGeneral\nComplete name : The Girl He Met Online 2014 HDRip XviD-LIFETIME.avi\nFormat : AVI\nFormat/Info : Audio Video Interleave\nFile size : 699 MiB\nDuration : 1h 23mn\nOverall bit rate : 1 170 Kbps\n\nVideo\nID : 0\nFormat : MPEG-4 Visual\nFormat profile : Advanced Simple@L5\nFormat settings, BVOP : 2\nFormat settings, QPel : No\nFormat settings, GMC : No warppoints\nFormat settings, Matrix : Default (H.263)\nCodec ID : XVID\nCodec ID/Hint : XviD\nDuration : 1h 23mn\nBit rate : 1 028 Kbps\nWidth : 624 pixels\nHeight : 352 pixels\nDisplay aspect ratio : 16:9\nFrame rate : 29.970 fps\nColor space : YUV\nChroma subsampling : 4:2:0\nBit depth : 8 bits\nScan type : Progressive\nCompression mode : Lossy\nBits/(Pixel*Frame) : 0.156\nStream size : 614 MiB (88%)\nWriting library : XviD 1.2.1 (UTC 2008-12-04)\n\nAudio\nID : 1\nFormat : MPEG Audio\nFormat version : Version 1\nFormat profile : Layer 3\nCodec ID : 55\nCodec ID/Hint : MP3\nDuration : 1h 23mn\nSource duration : 1h 23mn\nBit rate mode : Constant\nBit rate : 128 Kbps\nChannel(s) : 2 channels\nSampling rate : 48.0 KHz\nCompression mode : Lossy\nStream size : 76.4 MiB (11%)\nAlignment : Split accross interleaves\nInterleave, duration : 24 ms (0.72 video frame)\n\n\n[img]http://s30.postimg.org/cjpszq9b5/vlcsnap_2014_04_21_14h48m29s143.png[/img]\n[img]http://s30.postimg.org/iuv0g5ajl/vlcsnap_2014_04_21_14h48m46s69.png[/img]\n[img]http://s30.postimg.org/advi585up/vlcsnap_2014_04_21_14h48m51s112.png[/img]\n[img]http://s30.postimg.org/tya1806g1/vlcsnap_2014_04_21_14h48m58s184.png[/img]","torrent":{"xt":"urn:btih:acb3913cb720a2c307ca2ceea7c38717804e46bb","amp;dn":"The+Girl+He+Met+Online+2014+HDRip+XviD-LIFETIME","amp;tr":["udp%3A%2F%2Ftracker.openbittorrent.com%3A80","udp%3A%2F%2Fopen.demonii.com%3A1337","udp%3A%2F%2Ftracker.coppersurfer.tk%3A6969","udp%3A%2F%2Fexodus.desync.com%3A6969"],"infoHash":"acb3913cb720a2c307ca2ceea7c38717804e46bb","infoHashBuffer":{"type":"Buffer","data":[172,179,145,60,183,32,162,195,7,202,44,238,167,195,135,23,128,78,70,187]},"announce":[],"urlList":[]}}